<?xml version="1.0" encoding="utf-8"?>
<svg viewBox="217 42 200 42" xmlns="http://www.w3.org/2000/svg">
  <path d="M 286.524 62.777 L 280.935 62.777 L 280.905 60.43 L 285.979 60.43 C 286.817 60.43 287.549 60.288 288.175 60.006 C 288.801 59.723 289.286 59.319 289.629 58.794 C 289.983 58.259 290.159 57.623 290.159 56.885 C 290.159 56.078 290.003 55.421 289.69 54.916 C 289.387 54.401 288.917 54.028 288.281 53.796 C 287.655 53.553 286.857 53.432 285.888 53.432 L 281.586 53.432 L 281.586 73.092 L 278.663 73.092 L 278.663 51.039 L 285.888 51.039 C 287.019 51.039 288.029 51.155 288.917 51.387 C 289.806 51.609 290.558 51.963 291.174 52.448 C 291.8 52.922 292.275 53.528 292.598 54.265 C 292.921 55.002 293.083 55.886 293.083 56.916 C 293.083 57.825 292.85 58.647 292.386 59.385 C 291.921 60.112 291.275 60.707 290.447 61.172 C 289.629 61.636 288.67 61.934 287.569 62.066 L 286.524 62.777 Z M 286.388 73.092 L 279.784 73.092 L 281.435 70.714 L 286.388 70.714 C 287.317 70.714 288.104 70.553 288.751 70.229 C 289.407 69.906 289.907 69.452 290.25 68.866 C 290.594 68.27 290.765 67.569 290.765 66.761 C 290.765 65.943 290.619 65.236 290.326 64.64 C 290.033 64.045 289.574 63.585 288.948 63.262 C 288.322 62.939 287.514 62.777 286.524 62.777 L 282.359 62.777 L 282.389 60.43 L 288.084 60.43 L 288.705 61.278 C 289.766 61.369 290.664 61.672 291.401 62.187 C 292.138 62.692 292.699 63.338 293.083 64.125 C 293.476 64.913 293.673 65.781 293.673 66.731 C 293.673 68.104 293.37 69.265 292.765 70.214 C 292.169 71.153 291.326 71.87 290.235 72.365 C 289.145 72.85 287.862 73.092 286.388 73.092 Z M 296.824 65.08 L 296.824 64.731 C 296.824 63.55 296.995 62.454 297.339 61.445 C 297.682 60.425 298.177 59.541 298.823 58.794 C 299.469 58.037 300.252 57.451 301.171 57.037 C 302.09 56.613 303.12 56.401 304.261 56.401 C 305.412 56.401 306.447 56.613 307.366 57.037 C 308.295 57.451 309.082 58.037 309.729 58.794 C 310.385 59.541 310.885 60.425 311.228 61.445 C 311.571 62.454 311.743 63.55 311.743 64.731 L 311.743 65.08 C 311.743 66.261 311.571 67.357 311.228 68.366 C 310.885 69.376 310.385 70.26 309.729 71.017 C 309.082 71.764 308.3 72.35 307.381 72.774 C 306.472 73.188 305.442 73.395 304.291 73.395 C 303.14 73.395 302.105 73.188 301.186 72.774 C 300.267 72.35 299.479 71.764 298.823 71.017 C 298.177 70.26 297.682 69.376 297.339 68.366 C 296.995 67.357 296.824 66.261 296.824 65.08 Z M 299.626 64.731 L 299.626 65.08 C 299.626 65.898 299.722 66.67 299.914 67.397 C 300.106 68.114 300.393 68.75 300.777 69.306 C 301.171 69.861 301.661 70.3 302.246 70.623 C 302.832 70.936 303.513 71.093 304.291 71.093 C 305.058 71.093 305.73 70.936 306.305 70.623 C 306.891 70.3 307.376 69.861 307.76 69.306 C 308.143 68.75 308.431 68.114 308.623 67.397 C 308.825 66.67 308.926 65.898 308.926 65.08 L 308.926 64.731 C 308.926 63.923 308.825 63.161 308.623 62.444 C 308.431 61.717 308.138 61.076 307.744 60.521 C 307.361 59.955 306.876 59.511 306.29 59.188 C 305.715 58.865 305.038 58.703 304.261 58.703 C 303.493 58.703 302.817 58.865 302.231 59.188 C 301.656 59.511 301.171 59.955 300.777 60.521 C 300.393 61.076 300.106 61.717 299.914 62.444 C 299.722 63.161 299.626 63.923 299.626 64.731 Z M 314.515 65.08 L 314.515 64.731 C 314.515 63.55 314.687 62.454 315.03 61.445 C 315.373 60.425 315.868 59.541 316.514 58.794 C 317.16 58.037 317.943 57.451 318.862 57.037 C 319.781 56.613 320.811 56.401 321.952 56.401 C 323.103 56.401 324.138 56.613 325.057 57.037 C 325.986 57.451 326.774 58.037 327.42 58.794 C 328.076 59.541 328.576 60.425 328.92 61.445 C 329.263 62.454 329.435 63.55 329.435 64.731 L 329.435 65.08 C 329.435 66.261 329.263 67.357 328.92 68.366 C 328.576 69.376 328.076 70.26 327.42 71.017 C 326.774 71.764 325.991 72.35 325.072 72.774 C 324.164 73.188 323.134 73.395 321.982 73.395 C 320.831 73.395 319.796 73.188 318.877 72.774 C 317.958 72.35 317.171 71.764 316.514 71.017 C 315.868 70.26 315.373 69.376 315.03 68.366 C 314.687 67.357 314.515 66.261 314.515 65.08 Z M 317.317 64.731 L 317.317 65.08 C 317.317 65.898 317.413 66.67 317.605 67.397 C 317.797 68.114 318.084 68.75 318.468 69.306 C 318.862 69.861 319.352 70.3 319.937 70.623 C 320.523 70.936 321.205 71.093 321.982 71.093 C 322.75 71.093 323.421 70.936 323.997 70.623 C 324.583 70.3 325.067 69.861 325.451 69.306 C 325.835 68.75 326.123 68.114 326.314 67.397 C 326.516 66.67 326.617 65.898 326.617 65.08 L 326.617 64.731 C 326.617 63.923 326.516 63.161 326.314 62.444 C 326.123 61.717 325.83 61.076 325.436 60.521 C 325.052 59.955 324.567 59.511 323.982 59.188 C 323.406 58.865 322.73 58.703 321.952 58.703 C 321.185 58.703 320.508 58.865 319.922 59.188 C 319.347 59.511 318.862 59.955 318.468 60.521 C 318.084 61.076 317.797 61.717 317.605 62.444 C 317.413 63.161 317.317 63.923 317.317 64.731 Z M 335.735 59.96 L 335.735 73.092 L 332.918 73.092 L 332.918 56.704 L 335.584 56.704 L 335.735 59.96 Z M 335.16 64.277 L 333.857 64.231 C 333.867 63.111 334.014 62.076 334.297 61.126 C 334.579 60.167 334.998 59.334 335.554 58.627 C 336.109 57.92 336.801 57.375 337.629 56.991 C 338.457 56.598 339.416 56.401 340.507 56.401 C 341.274 56.401 341.981 56.512 342.627 56.734 C 343.273 56.946 343.834 57.284 344.308 57.749 C 344.783 58.213 345.151 58.809 345.414 59.536 C 345.677 60.263 345.808 61.142 345.808 62.172 L 345.808 73.092 L 343.006 73.092 L 343.006 62.308 C 343.006 61.45 342.859 60.763 342.567 60.248 C 342.284 59.733 341.88 59.359 341.355 59.127 C 340.83 58.885 340.214 58.764 339.507 58.764 C 338.679 58.764 337.987 58.91 337.432 59.203 C 336.876 59.496 336.432 59.9 336.099 60.415 C 335.766 60.93 335.523 61.52 335.372 62.187 C 335.231 62.843 335.16 63.54 335.16 64.277 Z M 345.778 62.732 L 343.899 63.308 C 343.909 62.409 344.056 61.545 344.339 60.717 C 344.631 59.889 345.051 59.152 345.596 58.506 C 346.151 57.86 346.833 57.35 347.641 56.976 C 348.448 56.593 349.372 56.401 350.412 56.401 C 351.291 56.401 352.068 56.517 352.745 56.749 C 353.432 56.981 354.007 57.34 354.472 57.825 C 354.946 58.299 355.305 58.91 355.547 59.657 C 355.789 60.404 355.911 61.293 355.911 62.323 L 355.911 73.092 L 353.093 73.092 L 353.093 62.293 C 353.093 61.374 352.947 60.662 352.654 60.157 C 352.371 59.642 351.967 59.284 351.442 59.082 C 350.927 58.87 350.311 58.764 349.594 58.764 C 348.979 58.764 348.433 58.87 347.959 59.082 C 347.484 59.294 347.085 59.587 346.762 59.96 C 346.439 60.324 346.192 60.743 346.02 61.217 C 345.858 61.692 345.778 62.197 345.778 62.732 Z" fill="#999999"/>
  <path d="M 238.351 60.922 C 246.156 56.019 256.688 59.651 252.284 68.232 C 247.88 76.809 207.615 60.912 224.117 68.812 C 240.619 76.712 246.98 92.802 253.733 77.592 C 260.487 62.382 268.623 29.47 245.739 49.472 C 222.856 69.474 228.607 67.037 238.351 60.922 Z" fill="#999999"/>
</svg>